<svg width="64" height="64" viewBox="0 0 64 64" fill="none" xmlns="http://www.w3.org/2000/svg">
  <!-- Gradient Definitions -->
  <defs>
    <linearGradient id="grad1" x1="0%" y1="0%" x2="100%" y2="100%">
      <stop offset="0%" style="stop-color:#8B5CF6;stop-opacity:1" />
      <stop offset="100%" style="stop-color:#EC4899;stop-opacity:1" />
    </linearGradient>
  </defs>
  
  <!-- Background Circle -->
  <circle cx="32" cy="32" r="32" fill="url(#grad1)"/>
  
  <!-- Video Camera Icon -->
  <path d="M18 22C16.8954 22 16 22.8954 16 24V40C16 41.1046 16.8954 42 18 42H38C39.1046 42 40 41.1046 40 40V24C40 22.8954 39.1046 22 38 22H18Z" fill="white"/>
  <path d="M41 26.2361L47.5528 22.9598C48.2177 22.6274 49 23.1056 49 23.8541V40.1459C49 40.8944 48.2177 41.3726 47.5528 41.0402L41 37.7639V26.2361Z" fill="white"/>
  
  <!-- Lock Icon (Security Badge) -->
  <circle cx="48" cy="18" r="10" fill="#10B981"/>
  <path d="M48 14C46.8954 14 46 14.8954 46 16V17H50V16C50 14.8954 49.1046 14 48 14Z" fill="white"/>
  <rect x="44" y="17" width="8" height="6" rx="1" fill="white"/>
</svg>
